<?xml version="1.0" encoding="utf-8"?>
<!-- Generator: Adobe Illustrator 24.3.0, SVG Export Plug-In . SVG Version: 6.00 Build 0)  -->
<svg version="1.1" xmlns="http://www.w3.org/2000/svg" xmlns:xlink="http://www.w3.org/1999/xlink" x="0px" y="0px"
	 viewBox="0 0 155 27" style="enable-background:new 0 0 155 27;" xml:space="preserve">
<style type="text/css">
	.st0{fill-rule:evenodd;clip-rule:evenodd;fill:#FFB71B;}
	.st1{fill-rule:evenodd;clip-rule:evenodd;fill:#00953B;}
	.st2{fill:#002D74;}
	.st3{display:none;}
	.st4{display:inline;}
	.st5{fill:#FFFFFF;}
</style>
<g id="Layer_1">
	<g>
		<g>
			<polygon class="st0" points="0.16,27 30.79,27 15.95,0.26 			"/>
			<polygon class="st1" points="3.76,27 34.41,27 19.56,0.26 			"/>
		</g>
		<g>
			<g>
				<polygon class="st2" points="51.48,8.11 43.52,8.11 43.52,1.46 39.78,1.46 39.78,18.51 43.52,18.51 43.52,11.45 51.48,11.45 
					51.48,18.51 55.22,18.51 55.22,1.46 51.48,1.46 				"/>
				<path class="st2" d="M132.69,2.43c-0.79,0.8-0.82,1.97-0.84,2.66v13.43h3.74v-5.44h7.93v5.44h3.75V1.46h-11.66
					C134.5,1.47,133.47,1.63,132.69,2.43z M136.54,4.79h6.98v4.95h-7.93V5.76c0.01-0.2-0.02-0.55,0.14-0.76
					C135.9,4.78,136.19,4.8,136.54,4.79z"/>
				<path class="st2" d="M106.24,1.46H94.56v17.06h3.74V4.79h7.01c0.35,0.01,0.64-0.01,0.81,0.21c0.17,0.21,0.14,0.56,0.15,0.76
					v12.75H110V5.09c-0.02-0.68-0.05-1.85-0.83-2.66C108.39,1.63,107.35,1.47,106.24,1.46z"/>
				<path class="st2" d="M87.51,14.21c-0.01,0.2,0.02,0.54-0.15,0.76c-0.18,0.23-0.46,0.2-0.81,0.21h-7.01V1.46h-3.74v17.06h11.68
					c1.11-0.01,2.15-0.17,2.93-0.98c0.79-0.8,0.82-1.97,0.84-2.66V1.46h-3.74V14.21z"/>
				<path class="st2" d="M128.75,5.09c-0.02-0.68-0.05-1.85-0.83-2.66c-0.78-0.8-1.82-0.96-2.93-0.97h-7.94h-3.74v17.06h11.68
					c1.11-0.01,2.14-0.17,2.93-0.98c0.78-0.8,0.81-1.97,0.83-2.66V5.09z M125.02,14.21c-0.01,0.2,0.02,0.54-0.14,0.76
					c-0.17,0.23-0.46,0.2-0.81,0.21h-7.02V4.79h7.02c0.35,0.01,0.64-0.01,0.81,0.21c0.16,0.21,0.13,0.56,0.14,0.76V14.21z"/>
				<polygon class="st2" points="65.52,8.92 60.98,1.46 56.54,1.46 63.52,12.21 63.52,18.51 67.51,18.51 67.51,12.21 74.49,1.46 
					70.05,1.46 				"/>
				<rect x="151.01" y="1.46" class="st2" width="3.99" height="17.06"/>
			</g>
			<g>
				<g>
					<rect x="54.77" y="22.23" class="st2" width="1.06" height="4.77"/>
					<rect x="76.59" y="22.23" class="st2" width="1.06" height="4.77"/>
					<polygon class="st2" points="47.66,27 45.49,23.73 45.49,27 44.49,27 44.49,22.23 45.56,22.23 47.73,25.57 47.73,22.23 
						48.73,22.23 48.73,27 					"/>
					<polygon class="st2" points="59.86,27 57.69,23.73 57.69,27 56.68,27 56.68,22.23 57.76,22.23 59.93,25.57 59.93,22.23 
						60.93,22.23 60.93,27 					"/>
					<polygon class="st2" points="81.69,27 79.52,23.73 79.52,27 78.52,27 78.52,22.23 79.59,22.23 81.76,25.57 81.76,22.23 
						82.76,22.23 82.76,27 					"/>
					<path class="st2" d="M39.7,26.09h3.94V27H39.7V26.09z M39.7,22.23h3.94v0.92H39.7V22.23 M43.26,25.07h-2.52V27H39.7v-4.77h1.04
						v1.95h2.52V25.07"/>
					<path class="st2" d="M61.78,26.09h3.94V27h-3.94V26.09z M61.78,22.23h3.94v0.92h-3.94V22.23 M65.34,25.07h-2.52V27h-1.04v-4.77
						h1.04v1.95h2.52V25.07"/>
					<path class="st2" d="M66.57,26.09h3.94V27h-3.94V26.09z M66.57,22.23h3.94v0.92h-3.94V22.23 M70.13,25.07h-2.51V27h-1.04v-4.77
						h1.04v1.95h2.51V25.07"/>
					<path class="st2" d="M50.64,27c-0.71,0-1.06-0.35-1.06-1.06v-2.66c0-0.71,0.35-1.06,1.06-1.06h3.09v0.94h-2.82
						c-0.18,0-0.27,0.09-0.27,0.26v2.36c0,0.18,0.09,0.28,0.28,0.28h1.71c0.18,0,0.28-0.09,0.28-0.28v-0.74h-1.24v-0.89h2.24v1.78
						c0,0.7-0.35,1.05-1.04,1.06H50.64z"/>
					<path class="st2" d="M84.67,27c-0.71,0-1.06-0.35-1.06-1.06v-2.66c0-0.71,0.35-1.06,1.06-1.06h3.09v0.94h-2.82
						c-0.18,0-0.27,0.09-0.27,0.26v2.36c0,0.18,0.09,0.28,0.28,0.28h1.71c0.18,0,0.28-0.09,0.28-0.28v-0.74H85.7v-0.89h2.24v1.78
						c0,0.7-0.35,1.05-1.04,1.06H84.67z"/>
					<path class="st2" d="M74.83,25.32L75.89,27h-1.08l-1.07-1.68H74.83z M74.5,24.32v-0.89c0-0.18-0.09-0.26-0.27-0.26h-1.82v1.43
						h1.81C74.41,24.6,74.5,24.51,74.5,24.32 M75.54,24.45c0,0.7-0.35,1.06-1.06,1.06h-2.07V27h-1.05v-4.77h3.12
						c0.7,0,1.06,0.35,1.06,1.06V24.45"/>
				</g>
				<g>
					<rect x="143.62" y="22.23" class="st2" width="1.06" height="4.77"/>
					<polygon class="st2" points="111.59,27 109.42,23.73 109.42,27 108.42,27 108.42,22.23 109.5,22.23 111.66,25.57 111.66,22.23 
						112.67,22.23 112.67,27 					"/>
					<path class="st2" d="M102.36,27h-2.84c-0.7,0-1.06-0.35-1.06-1.06v-2.66c0-0.71,0.35-1.06,1.06-1.06h2.84v0.94h-2.57
						c-0.18,0-0.27,0.09-0.27,0.26v2.36c0,0.18,0.09,0.28,0.27,0.28h2.56V27z"/>
					<path class="st2" d="M137.58,27h-2.84c-0.71,0-1.06-0.35-1.06-1.06v-2.66c0-0.71,0.35-1.06,1.06-1.06h2.84v0.94h-2.57
						c-0.18,0-0.27,0.09-0.27,0.26v2.36c0,0.18,0.09,0.28,0.27,0.28h2.56V27z"/>
					<path class="st2" d="M106.25,23.17h-1.72c-0.18,0-0.27,0.09-0.27,0.26v2.36c0,0.18,0.09,0.28,0.27,0.28h1.71
						c0.18,0,0.27-0.09,0.27-0.28v-2.36C106.52,23.26,106.43,23.17,106.25,23.17z M104.27,22.23h2.25c0.7,0,1.06,0.35,1.06,1.06
						v2.65c0,0.7-0.35,1.06-1.06,1.06h-2.25c-0.7,0-1.06-0.35-1.06-1.06v-2.65C103.21,22.59,103.56,22.23,104.27,22.23"/>
					<polygon class="st2" points="153.93,27 151.76,23.73 151.76,27 150.76,27 150.76,22.23 151.84,22.23 154,25.57 154,22.23 
						155,22.23 155,27 					"/>
					<path class="st2" d="M148.58,23.16h-1.73c-0.18,0-0.27,0.09-0.27,0.26v2.37c0,0.18,0.09,0.28,0.27,0.28h1.72
						c0.18,0,0.27-0.09,0.27-0.28v-2.37C148.85,23.25,148.76,23.16,148.58,23.16z M146.59,22.22h2.25c0.7,0,1.06,0.35,1.06,1.06
						v2.66c0,0.71-0.35,1.06-1.06,1.06h-2.25c-0.7,0-1.06-0.35-1.06-1.06v-2.66C145.54,22.58,145.89,22.22,146.59,22.22"/>
					<path class="st2" d="M126.97,25.33l1.06,1.67h-1.08l-1.07-1.67H126.97z M126.65,24.32v-0.89c0-0.17-0.09-0.26-0.27-0.26h-1.82
						v1.43h1.81C126.55,24.6,126.65,24.51,126.65,24.32 M127.68,24.45c0,0.71-0.35,1.06-1.06,1.06h-2.07V27h-1.05v-4.77h3.12
						c0.7,0,1.06,0.35,1.06,1.06V24.45"/>
					<path class="st2" d="M113.71,27v-0.92h2.79c0.18,0,0.27-0.09,0.27-0.28v-0.48c0-0.17-0.09-0.26-0.27-0.26h-1.99v-0.89h2.29
						c0.67,0,1,0.32,1,0.97v0.8c0,0.7-0.35,1.06-1.05,1.06H113.71z M117.56,22.23v0.93h-2.74c-0.18,0-0.27,0.09-0.27,0.26v0.47
						c0,0.18,0.09,0.28,0.28,0.28h1.99v0.89h-2.29c-0.67,0-1-0.33-1-0.98v-0.79c0-0.7,0.35-1.06,1.05-1.06H117.56"/>
					<polygon class="st2" points="118.4,22.23 120.56,22.23 122.73,22.23 122.73,23.19 121.1,23.19 121.1,27 120.56,27 120.05,27 
						120.05,23.19 118.4,23.19 					"/>
					<polygon class="st2" points="138.43,22.23 140.6,22.23 142.77,22.23 142.77,23.19 141.13,23.19 141.13,27 140.6,27 140.08,27 
						140.08,23.19 138.43,23.19 					"/>
					<path class="st2" d="M131.78,25.8v-3.56h1.05v3.71c0,0.7-0.35,1.05-1.06,1.05h-2.18c-0.7,0-1.05-0.35-1.05-1.05v-3.71h1.05
						v3.56c0,0.18,0.09,0.27,0.27,0.27h1.65C131.68,26.07,131.78,25.98,131.78,25.8"/>
				</g>
				<path class="st2" d="M94.51,25.68l0.73-0.82l-0.69-0.6l-0.69,0.75l-1.42-1.46v-0.34c0-0.05,0.01-0.05,0.05-0.05h0.64
					c0.04,0,0.05,0,0.05,0.05v0.61h0.98v-0.68c0-0.74-0.44-0.9-0.81-0.9h-1.07c-0.53,0-0.81,0.29-0.81,0.83v0.45
					c0,0.29,0.12,0.56,0.35,0.8l0.01,0.01l-0.49,0.38c-0.26,0.2-0.39,0.47-0.39,0.79v0.5c0,0.82,0.5,1,0.92,1h1.01
					c0.32,0,0.57-0.11,0.77-0.34l0.24-0.28l0.62,0.61h1.28L94.51,25.68z M93.21,25.71L92.94,26c-0.05,0.05-0.1,0.07-0.16,0.07h-0.69
					c-0.07,0-0.1-0.02-0.1-0.11v-0.43c0-0.08,0.03-0.14,0.09-0.18L92.51,25L93.21,25.71z"/>
			</g>
		</g>
	</g>
</g>
<g id="Layer_2" class="st3">
	<g class="st4">
		<g>
			<polygon class="st5" points="20.29,0.21 17.95,4.17 4.61,26.75 4.61,26.75 30.49,26.75 35.03,26.75 			"/>
			<polygon class="st5" points="15.76,0.21 0.08,26.75 3.13,26.75 17.24,2.88 			"/>
		</g>
		<g>
			<g>
				<polygon class="st5" points="51.93,8 44,8 44,1.37 40.28,1.37 40.28,18.36 44,18.36 44,11.32 51.93,11.32 51.93,18.36 
					55.66,18.36 55.66,1.37 51.93,1.37 				"/>
				<path class="st5" d="M132.78,2.34c-0.78,0.8-0.81,1.97-0.83,2.64v13.37h3.72v-5.42h7.9v5.42h3.73V1.37h-11.61
					C134.59,1.38,133.56,1.54,132.78,2.34z M136.62,4.69h6.95v4.93h-7.9V5.66c0.01-0.2-0.02-0.55,0.14-0.76
					C135.99,4.68,136.27,4.7,136.62,4.69z"/>
				<path class="st5" d="M106.45,1.37H94.82v16.98h3.73V4.69h6.98c0.35,0.01,0.63-0.01,0.8,0.21c0.17,0.21,0.14,0.56,0.15,0.76
					v12.69h3.72V4.99c-0.02-0.68-0.05-1.85-0.83-2.64C108.59,1.54,107.56,1.38,106.45,1.37z"/>
				<path class="st5" d="M87.81,14.07c-0.01,0.2,0.02,0.54-0.14,0.75c-0.18,0.22-0.46,0.2-0.81,0.21h-6.98V1.37h-3.73v16.98h11.63
					c1.11-0.01,2.14-0.17,2.91-0.97c0.78-0.8,0.81-1.96,0.84-2.64V1.37h-3.72V14.07z"/>
				<path class="st5" d="M128.87,4.99c-0.02-0.68-0.05-1.85-0.83-2.64c-0.78-0.8-1.81-0.96-2.91-0.97h-7.91h-3.72v16.98h11.63
					c1.1-0.01,2.13-0.17,2.91-0.97c0.78-0.8,0.81-1.96,0.83-2.64V4.99z M125.16,14.07c-0.01,0.2,0.02,0.54-0.14,0.75
					c-0.17,0.22-0.46,0.2-0.8,0.21h-6.99V4.69h6.99c0.35,0.01,0.63-0.01,0.8,0.21c0.16,0.21,0.13,0.56,0.14,0.76V14.07z"/>
				<polygon class="st5" points="65.91,8.8 61.39,1.37 56.97,1.37 63.92,12.08 63.92,18.36 67.9,18.36 67.9,12.08 74.84,1.37 
					70.42,1.37 				"/>
				<rect x="151.03" y="1.37" class="st5" width="3.97" height="16.98"/>
			</g>
			<g>
				<path class="st5" d="M95.51,24.66l-0.68-0.59l-0.68,0.73l-1.4-1.44v-0.33c0-0.05,0-0.05,0.05-0.05h0.63c0.04,0,0.05,0,0.05,0.05
					v0.6h0.96v-0.67c0-0.73-0.43-0.88-0.8-0.88h-1.05c-0.52,0-0.79,0.28-0.79,0.82v0.44c0,0.29,0.11,0.55,0.34,0.79l0.01,0.01
					l-0.49,0.37c-0.25,0.2-0.38,0.46-0.38,0.78v0.5c0,0.81,0.49,0.98,0.91,0.98h1c0.31,0,0.57-0.11,0.76-0.33l0.24-0.27l0.61,0.6
					h1.26l-1.25-1.29L95.51,24.66z M93.24,25.78c-0.05,0.04-0.1,0.06-0.16,0.06H92.4c-0.07,0-0.1-0.02-0.1-0.11v-0.42
					c0-0.08,0.03-0.14,0.09-0.18l0.43-0.34l0.7,0.69L93.24,25.78z"/>
				<rect x="55.06" y="22.07" class="st5" width="1.04" height="4.68"/>
				<rect x="76.63" y="22.07" class="st5" width="1.04" height="4.68"/>
				<polygon class="st5" points="48.16,25.34 46.03,22.07 44.98,22.07 44.98,26.75 45.96,26.75 45.96,23.54 48.09,26.75 
					49.14,26.75 49.14,22.07 48.16,22.07 				"/>
				<polygon class="st5" points="60.12,25.34 58,22.07 56.94,22.07 56.94,26.75 57.93,26.75 57.93,23.54 60.06,26.75 61.1,26.75 
					61.1,22.07 60.12,22.07 				"/>
				<polygon class="st5" points="81.69,25.34 79.57,22.07 78.51,22.07 78.51,26.75 79.5,26.75 79.5,23.54 81.62,26.75 82.68,26.75 
					82.68,22.07 81.69,22.07 				"/>
				<polygon class="st5" points="40.28,22.07 40.28,22.97 40.28,25.85 40.28,26.75 41.31,26.75 44.14,26.75 44.14,25.85 
					41.31,25.85 41.31,24.86 43.77,24.86 43.77,23.98 41.31,23.98 41.31,22.97 44.14,22.97 44.14,22.07 41.31,22.07 				"/>
				<polygon class="st5" points="61.94,22.07 61.94,22.97 61.94,25.85 61.94,26.75 62.97,26.75 65.8,26.75 65.8,25.85 62.97,25.85 
					62.97,24.86 65.43,24.86 65.43,23.98 62.97,23.98 62.97,22.97 65.8,22.97 65.8,22.07 62.97,22.07 				"/>
				<polygon class="st5" points="66.64,22.07 66.64,22.97 66.64,25.85 66.64,26.75 67.67,26.75 70.5,26.75 70.5,25.85 67.67,25.85 
					67.67,24.86 70.13,24.86 70.13,23.98 67.67,23.98 67.67,22.97 70.5,22.97 70.5,22.07 67.67,22.07 				"/>
				<path class="st5" d="M52.02,24.84h1.21v0.72c0,0.18-0.09,0.27-0.27,0.27h-1.68c-0.18,0-0.27-0.09-0.27-0.27v-2.32
					c0-0.17,0.09-0.26,0.26-0.26h2.76v-0.92h-3.03c-0.69,0-1.04,0.35-1.04,1.04v2.61c0,0.69,0.34,1.04,1.04,1.04h2.18
					c0.68,0,1.03-0.35,1.03-1.04v-1.75h-2.2V24.84z"/>
				<path class="st5" d="M85.56,24.84h1.22v0.72c0,0.18-0.09,0.27-0.27,0.27h-1.68c-0.18,0-0.27-0.09-0.27-0.27v-2.32
					c0-0.17,0.09-0.26,0.26-0.26h2.76v-0.92h-3.03c-0.69,0-1.04,0.35-1.04,1.04v2.61c0,0.69,0.34,1.04,1.04,1.04h2.18
					c0.68,0,1.03-0.35,1.03-1.04v-1.75h-2.2V24.84z"/>
				<path class="st5" d="M75.44,24.25V23.1c0-0.69-0.35-1.04-1.04-1.04h-3.06v4.68h1.03v-1.47h1.41l0.94,1.47h1.06l-0.97-1.52
					C75.23,25.11,75.44,24.78,75.44,24.25z M72.38,22.99h1.78c0.18,0,0.26,0.09,0.26,0.26v0.88c0,0.18-0.09,0.27-0.27,0.27h-1.78
					V22.99z"/>
				<rect x="143.84" y="22.07" class="st5" width="1.04" height="4.68"/>
				<polygon class="st5" points="112.15,25.34 110.03,22.07 108.97,22.07 108.97,26.75 109.95,26.75 109.95,23.54 112.08,26.75 
					113.13,26.75 113.13,22.07 112.15,22.07 				"/>
				<path class="st5" d="M99.2,23.1v2.61c0,0.69,0.35,1.04,1.04,1.04h2.79v-0.91h-2.51c-0.18,0-0.27-0.09-0.27-0.27v-2.32
					c0-0.17,0.09-0.26,0.26-0.26h2.52v-0.92h-2.79C99.54,22.07,99.2,22.41,99.2,23.1z"/>
				<path class="st5" d="M134.09,23.1v2.61c0,0.69,0.34,1.04,1.04,1.04h2.79v-0.91h-2.51c-0.18,0-0.27-0.09-0.27-0.27v-2.32
					c0-0.17,0.09-0.26,0.26-0.26h2.52v-0.92h-2.79C134.43,22.07,134.09,22.41,134.09,23.1z"/>
				<path class="st5" d="M107.1,22.07h-2.21c-0.69,0-1.04,0.35-1.04,1.04v2.6c0,0.69,0.35,1.04,1.04,1.04h2.21
					c0.69,0,1.04-0.35,1.04-1.04v-2.6C108.14,22.42,107.79,22.07,107.1,22.07z M107.1,25.57c0,0.18-0.09,0.27-0.27,0.27h-1.68
					c-0.18,0-0.27-0.09-0.27-0.27v-2.32c0-0.17,0.09-0.26,0.26-0.26h1.69c0.18,0,0.26,0.09,0.26,0.26V25.57z"/>
				<polygon class="st5" points="154.02,22.07 154.02,25.34 151.89,22.07 150.84,22.07 150.84,26.75 151.82,26.75 151.82,23.54 
					153.95,26.75 155,26.75 155,22.07 				"/>
				<path class="st5" d="M148.96,22.06h-2.21c-0.69,0-1.04,0.35-1.04,1.04v2.61c0,0.69,0.35,1.04,1.04,1.04h2.21
					c0.69,0,1.04-0.35,1.04-1.04V23.1C150,22.41,149.66,22.06,148.96,22.06z M148.97,25.56c0,0.18-0.09,0.27-0.27,0.27h-1.68
					c-0.18,0-0.27-0.09-0.27-0.27v-2.32c0-0.17,0.09-0.26,0.26-0.26h1.7c0.18,0,0.26,0.09,0.26,0.26V25.56z"/>
				<path class="st5" d="M128.2,24.25v-1.14c0-0.69-0.35-1.04-1.04-1.04h-3.06v4.68h1.03v-1.47h1.41l0.94,1.47h1.06l-0.97-1.52
					C127.99,25.11,128.2,24.78,128.2,24.25z M125.14,22.99h1.78c0.18,0,0.26,0.09,0.26,0.26v0.88c0,0.18-0.09,0.27-0.27,0.27h-1.78
					V22.99z"/>
				<path class="st5" d="M117.2,23.97h-1.95c-0.18,0-0.27-0.09-0.27-0.27v-0.47c0-0.17,0.09-0.26,0.26-0.26h2.68v-0.91H115
					c-0.69,0-1.03,0.35-1.03,1.04v0.78c0,0.64,0.33,0.96,0.99,0.96h1.95c0.17,0,0.26,0.09,0.26,0.26v0.47
					c0,0.18-0.09,0.27-0.27,0.27h-2.74v0.9h3c0.69,0,1.03-0.35,1.03-1.04v-0.78C118.19,24.29,117.86,23.97,117.2,23.97z"/>
				<polygon class="st5" points="119.02,22.07 119.02,23.01 120.63,23.01 120.63,26.75 121.14,26.75 121.66,26.75 121.66,23.01 
					123.27,23.01 123.27,22.07 121.14,22.07 				"/>
				<polygon class="st5" points="138.75,22.07 138.75,23.01 140.36,23.01 140.36,26.75 140.87,26.75 141.39,26.75 141.39,23.01 
					143,23.01 143,22.07 140.87,22.07 				"/>
				<path class="st5" d="M132.22,25.57c0,0.18-0.09,0.27-0.27,0.27h-1.62c-0.18,0-0.27-0.09-0.27-0.27v-3.49h-1.03v3.63
					c0,0.69,0.34,1.03,1.03,1.03h2.14c0.69,0,1.04-0.34,1.04-1.03v-3.63h-1.03V25.57z"/>
			</g>
		</g>
	</g>
</g>
</svg>
